<svg width="200" height="50" viewBox="0 0 450 80" fill="none" xmlns="http://www.w3.org/2000/svg">
<!--<path d="M68 42.39C68 41.3438 68.9096 40.53 69.9493 40.6459L101.251 44.136C105.227 44.5794 108.591 41.226 108.161 37.2483C107.713 33.1161 103.434 30.5622 99.5844 32.1306L70.4171 44.0151C69.2629 44.4854 68 43.6363 68 42.39Z" fill="url(#paint0_linear_2205_14)"/>-->


<path d="M69 42.39C68 41.3438 68.9096 40.53 69.9493 40.6459L101.251 44.136C105.227 44.5794 108.591 41.226 108.161 37.2483C107.713 33.1161 103.434 30.5622 99.5844 32.1306L70.4171 44.0151C69.2629 44.4854 68 43.6363 68 42.39Z" fill="url(#paint0_linear_2205_14)"/>


<path d="M 0 67.601 L 4.8 59.601 Q 8.4 62.601 12.9 64.501 A 23.348 23.348 0 0 0 18.27 66.011 A 32.118 32.118 0 0 0 23.4 66.401 A 27.981 27.981 0 0 0 27.947 66.054 Q 30.37 65.655 32.331 64.794 A 13.701 13.701 0 0 0 34.8 63.401 Q 38.848 60.509 38.995 55.666 A 12.116 12.116 0 0 0 39 55.301 A 11.94 11.94 0 0 0 38.663 52.408 A 9.816 9.816 0 0 0 37.8 50.151 A 8.097 8.097 0 0 0 36.6 48.495 Q 35.33 47.114 33.184 45.772 A 25.81 25.81 0 0 0 33.15 45.751 Q 30.034 43.809 24.265 41.581 A 118.584 118.584 0 0 0 23 41.101 Q 15.8 38.301 11.5 35.451 A 21.931 21.931 0 0 1 8.411 33.003 Q 6.694 31.353 5.638 29.488 A 13.303 13.303 0 0 1 5.35 28.951 Q 3.5 25.301 3.5 20.301 Q 3.5 15.301 6.25 11.251 Q 9 7.201 14.35 4.751 A 25.558 25.558 0 0 1 20.25 2.916 Q 23.493 2.301 27.3 2.301 Q 33.5 2.301 38.45 3.551 Q 43.4 4.801 48.1 7.101 L 44.6 15.201 A 31.496 31.496 0 0 0 40.474 13.182 A 41.686 41.686 0 0 0 36.65 11.851 Q 32.1 10.501 27.1 10.501 A 27.187 27.187 0 0 0 23.07 10.781 Q 20.938 11.101 19.2 11.787 A 12.616 12.616 0 0 0 16.7 13.101 A 9.902 9.902 0 0 0 14.537 15.065 A 7.359 7.359 0 0 0 12.9 19.801 A 10.464 10.464 0 0 0 13.192 22.322 A 8.562 8.562 0 0 0 14 24.401 Q 15.056 26.32 18.091 28.147 A 23.503 23.503 0 0 0 18.35 28.301 A 33.003 33.003 0 0 0 20.566 29.473 Q 22.835 30.576 26.046 31.823 A 130.016 130.016 0 0 0 28.1 32.601 A 81.228 81.228 0 0 1 33.078 34.63 Q 37.464 36.601 40.45 38.701 A 26.044 26.044 0 0 1 43.49 41.178 Q 45.713 43.307 46.9 45.651 A 17.579 17.579 0 0 1 48.641 51.513 A 22.155 22.155 0 0 1 48.8 54.201 A 21.71 21.71 0 0 1 48.133 59.701 A 17.105 17.105 0 0 1 45.55 65.301 Q 42.3 69.901 36.55 72.301 A 30.521 30.521 0 0 1 29.14 74.305 A 40.027 40.027 0 0 1 23.4 74.701 Q 16.1 74.701 10.1 72.751 A 38.206 38.206 0 0 1 4.733 70.568 A 28.433 28.433 0 0 1 0 67.601 Z M 317 94.701 L 319 87.201 A 9.908 9.908 0 0 0 320.165 87.775 Q 320.988 88.119 322 88.401 A 13.514 13.514 0 0 0 324.279 88.818 A 17.358 17.358 0 0 0 326 88.901 Q 330.2 88.901 333.5 86.201 A 12.003 12.003 0 0 0 335.433 84.139 Q 337.181 81.828 338.841 77.976 A 58.58 58.58 0 0 0 339.8 75.601 L 342.1 69.601 L 337.3 69.601 L 317 23.901 L 325 20.301 L 344.4 63.601 L 359.5 20.701 L 367.8 23.901 L 348.7 76.101 A 71.728 71.728 0 0 1 346.647 81.187 Q 345.545 83.626 344.378 85.615 A 30.86 30.86 0 0 1 342.4 88.601 A 24.268 24.268 0 0 1 339.522 91.811 Q 337.608 93.579 335.505 94.619 A 14.737 14.737 0 0 1 334.9 94.901 Q 330.8 96.701 325.8 96.701 Q 322.8 96.701 320.55 96.101 Q 318.3 95.501 317 94.701 Z M 209.2 95.501 L 200.2 95.501 L 200.2 34.801 A 11.015 11.015 0 0 0 200.073 33.065 Q 199.742 30.999 198.55 29.951 A 5.718 5.718 0 0 0 195.76 28.628 A 7.991 7.991 0 0 0 194.3 28.501 L 196.2 21.501 Q 202.062 21.501 205.122 24.464 A 10.15 10.15 0 0 1 207.7 28.801 Q 208.655 27.368 210.752 25.478 A 38.58 38.58 0 0 1 210.95 25.301 A 18.902 18.902 0 0 1 213.651 23.317 A 25.569 25.569 0 0 1 216.55 21.801 A 16.955 16.955 0 0 1 221.109 20.512 A 21.886 21.886 0 0 1 224.2 20.301 Q 230.2 20.301 235.45 23.451 A 22.329 22.329 0 0 1 242.628 30.418 A 27.464 27.464 0 0 1 243.9 32.551 Q 247.1 38.501 247.1 47.001 Q 247.1 55.301 243.9 61.551 A 27.846 27.846 0 0 1 239.966 67.382 A 23.029 23.029 0 0 1 235.55 71.251 Q 230.4 74.701 224.4 74.701 Q 219.8 74.701 215.8 72.851 A 30.352 30.352 0 0 1 212.384 71.012 Q 210.591 69.885 209.2 68.601 L 209.2 95.501 Z M 209.2 34.901 L 209.2 60.501 Q 211.8 63.201 215.2 64.951 Q 218.6 66.701 222.6 66.701 Q 229.294 66.701 233.517 61.517 A 17.38 17.38 0 0 0 233.65 61.351 A 18.792 18.792 0 0 0 237.144 54.045 Q 237.805 51.355 237.888 48.209 A 34.555 34.555 0 0 0 237.9 47.301 Q 237.9 41.301 235.75 37.001 Q 233.6 32.701 230.05 30.401 Q 226.5 28.101 222.2 28.101 A 14.741 14.741 0 0 0 216.573 29.164 A 14.054 14.054 0 0 0 214.45 30.251 Q 211 32.401 209.2 34.901 Z M 110.1 73.501 L 100.7 73.501 L 79.8 23.901 L 88 20.501 L 105.7 63.301 L 123.4 20.501 L 131.1 23.901 L 110.1 73.501 Z M 173.7 25.701 A 22.103 22.103 0 0 0 171.637 24.144 A 26.002 26.002 0 0 0 167.35 21.851 A 18.703 18.703 0 0 0 163.994 20.791 A 22.584 22.584 0 0 0 159.2 20.301 A 27.388 27.388 0 0 0 157.645 20.344 A 22.297 22.297 0 0 0 146.45 23.951 Q 140.9 27.601 137.75 33.801 A 27.968 27.968 0 0 0 135.597 39.532 A 33.142 33.142 0 0 0 134.6 47.801 A 36.644 36.644 0 0 0 135.12 54.108 A 27.228 27.228 0 0 0 137.75 62.051 A 27.923 27.923 0 0 0 138.787 63.874 A 22.947 22.947 0 0 0 146.2 71.401 Q 151.5 74.701 158 74.701 Q 164.1 74.701 168.05 72.051 A 28.498 28.498 0 0 0 171.19 69.627 A 21.307 21.307 0 0 0 174.3 66.201 A 13.59 13.59 0 0 0 174.403 66.581 Q 175.998 72.128 181.635 73.528 A 17.722 17.722 0 0 0 185.9 74.001 L 187.8 67.001 Q 185.6 67.001 183.75 65.851 Q 182.334 64.97 182.002 62.536 A 12.15 12.15 0 0 1 181.9 60.901 L 181.9 21.501 L 173.7 21.501 L 173.7 25.701 Z M 172.9 60.201 L 172.9 32.301 Q 170.2 30.401 166.95 29.251 Q 163.7 28.101 160.1 28.101 A 15.924 15.924 0 0 0 155.129 28.854 A 14.024 14.024 0 0 0 151.65 30.551 A 16.301 16.301 0 0 0 146.631 35.974 A 19.962 19.962 0 0 0 145.9 37.351 A 20.663 20.663 0 0 0 144.147 43.027 A 27.678 27.678 0 0 0 143.8 47.501 Q 143.8 53.101 145.9 57.451 A 17.602 17.602 0 0 0 149.006 61.997 A 15.697 15.697 0 0 0 151.7 64.251 Q 155.4 66.701 160 66.701 Q 163.8 66.701 167.2 64.851 Q 170.6 63.001 172.9 60.201 Z M 410.4 25.701 A 22.103 22.103 0 0 0 408.337 24.144 A 26.002 26.002 0 0 0 404.05 21.851 A 18.703 18.703 0 0 0 400.694 20.791 A 22.584 22.584 0 0 0 395.9 20.301 A 27.388 27.388 0 0 0 394.345 20.344 A 22.297 22.297 0 0 0 383.15 23.951 Q 377.6 27.601 374.45 33.801 A 27.968 27.968 0 0 0 372.297 39.532 A 33.142 33.142 0 0 0 371.3 47.801 A 36.644 36.644 0 0 0 371.82 54.108 A 27.228 27.228 0 0 0 374.45 62.051 A 27.923 27.923 0 0 0 375.487 63.874 A 22.947 22.947 0 0 0 382.9 71.401 Q 388.2 74.701 394.7 74.701 Q 400.8 74.701 404.75 72.051 A 28.498 28.498 0 0 0 407.89 69.627 A 21.307 21.307 0 0 0 411 66.201 A 13.59 13.59 0 0 0 411.103 66.581 Q 412.698 72.128 418.335 73.528 A 17.722 17.722 0 0 0 422.6 74.001 L 424.5 67.001 Q 422.3 67.001 420.45 65.851 Q 419.034 64.97 418.702 62.536 A 12.15 12.15 0 0 1 418.6 60.901 L 418.6 21.501 L 410.4 21.501 L 410.4 25.701 Z M 409.6 60.201 L 409.6 32.301 Q 406.9 30.401 403.65 29.251 Q 400.4 28.101 396.8 28.101 A 15.924 15.924 0 0 0 391.829 28.854 A 14.024 14.024 0 0 0 388.35 30.551 A 16.301 16.301 0 0 0 383.331 35.974 A 19.962 19.962 0 0 0 382.6 37.351 A 20.663 20.663 0 0 0 380.847 43.027 A 27.678 27.678 0 0 0 380.5 47.501 Q 380.5 53.101 382.6 57.451 A 17.602 17.602 0 0 0 385.706 61.997 A 15.697 15.697 0 0 0 388.4 64.251 Q 392.1 66.701 396.7 66.701 Q 400.5 66.701 403.9 64.851 Q 407.3 63.001 409.6 60.201 Z M 268.6 73.501 L 259.6 73.501 L 259.6 21.501 L 268.3 21.501 L 268.3 32.801 Q 269.6 29.501 271.8 26.651 Q 274 23.801 277.3 22.051 A 14.817 14.817 0 0 1 281.98 20.527 A 19.459 19.459 0 0 1 285 20.301 Q 286.5 20.301 288 20.451 A 18.972 18.972 0 0 1 289.055 20.584 Q 289.555 20.663 289.982 20.763 A 8.817 8.817 0 0 1 290.5 20.901 L 287.8 30.201 A 9.763 9.763 0 0 0 285.655 29.588 Q 284.559 29.401 283.3 29.401 A 12.958 12.958 0 0 0 276.67 31.246 A 15.609 15.609 0 0 0 276.25 31.501 Q 272.922 33.587 270.778 37.943 A 22.927 22.927 0 0 0 270.75 38.001 Q 268.987 41.608 268.67 46.828 A 39.09 39.09 0 0 0 268.6 49.201 L 268.6 73.501 Z M 70.8 73.501 L 61.8 73.501 L 61.8 21.501 L 70.8 21.501 L 70.8 73.501 Z M 308.5 73.501 L 299.5 73.501 L 299.5 21.501 L 308.5 21.501 L 308.5 73.501 Z M 61.937 10.789 A 7.466 7.466 0 0 1 61.85 10.701 A 6.643 6.643 0 0 1 60.492 8.719 A 5.992 5.992 0 0 1 60 6.301 A 7.987 7.987 0 0 1 60.229 4.333 A 5.588 5.588 0 0 1 61.7 1.701 A 5.661 5.661 0 0 1 64.644 0.158 A 8.264 8.264 0 0 1 66.3 0.001 A 6.059 6.059 0 0 1 70.692 1.793 A 7.395 7.395 0 0 1 70.75 1.851 A 6.06 6.06 0 0 1 72.6 6.22 A 7.26 7.26 0 0 1 72.6 6.301 Q 72.6 9.101 70.9 10.851 A 5.647 5.647 0 0 1 67.796 12.47 A 8.175 8.175 0 0 1 66.3 12.601 A 5.973 5.973 0 0 1 61.937 10.789 Z M 299.637 10.789 A 7.466 7.466 0 0 1 299.55 10.701 A 6.643 6.643 0 0 1 298.192 8.719 A 5.992 5.992 0 0 1 297.7 6.301 A 7.987 7.987 0 0 1 297.929 4.333 A 5.588 5.588 0 0 1 299.4 1.701 A 5.661 5.661 0 0 1 302.344 0.158 A 8.264 8.264 0 0 1 304 0.001 A 6.059 6.059 0 0 1 308.392 1.793 A 7.395 7.395 0 0 1 308.45 1.851 A 6.06 6.06 0 0 1 310.3 6.22 A 7.26 7.26 0 0 1 310.3 6.301 Q 310.3 9.101 308.6 10.851 A 5.647 5.647 0 0 1 305.496 12.47 A 8.175 8.175 0 0 1 304 12.601 A 5.973 5.973 0 0 1 299.637 10.789 Z" vector-effect="non-scaling-stroke" fill="white"/>

<defs>
<linearGradient id="paint0_linear_2205_14" x1="219.1" y1="39.9983" x2="202.599" y2="91.4037" gradientUnits="userSpaceOnUse">
<stop stop-color="#DF8908"/>
<stop offset="1" stop-color="#B415FF"/>
</linearGradient>
</defs>
</svg>